<svg xmlns="http://www.w3.org/2000/svg" width="1200" height="300" viewBox="0 0 1200 300">
  <rect width="1200" height="300" fill="#0d0d1f"/>

  <!-- LEFT: file tree panel -->
  <rect width="185" height="300" fill="#111126"/>
  <line x1="185" y1="0" x2="185" y2="300" stroke="#1e1e3a" stroke-width="1"/>
  <text x="14" y="68"  font-family="monospace" font-size="11" fill="#4a4a6a" letter-spacing="2">EXPLORER</text>
  <text x="14" y="90"  font-family="monospace" font-size="12" fill="#6b7280">▾ src/</text>
  <text x="26" y="110" font-family="monospace" font-size="12" fill="#f87171">  editor.ts</text>
  <text x="26" y="130" font-family="monospace" font-size="12" fill="#f87171">  session.ts</text>
  <rect x="0" y="135" width="185" height="20" fill="#f87171" opacity="0.12"/>
  <text x="26" y="149" font-family="monospace" font-size="12" fill="#f87171">→ conflict.ts</text>
  <text x="26" y="169" font-family="monospace" font-size="12" fill="#f87171">  sync.ts</text>
  <text x="26" y="189" font-family="monospace" font-size="12" fill="#f87171">  index.ts</text>

  <!-- LINE NUMBERS -->
  <rect x="185" y="0" width="40" height="300" fill="#0f0f22"/>
  <line x1="225" y1="0" x2="225" y2="300" stroke="#1e1e3a" stroke-width="1"/>
  <text x="218" y="100" font-family="monospace" font-size="11" fill="#2e2e50" text-anchor="end">1</text>
  <text x="218" y="125" font-family="monospace" font-size="11" fill="#2e2e50" text-anchor="end">2</text>
  <text x="218" y="150" font-family="monospace" font-size="11" fill="#2e2e50" text-anchor="end">3</text>
  <text x="218" y="175" font-family="monospace" font-size="11" fill="#f87171" text-anchor="end">4</text>
  <text x="218" y="200" font-family="monospace" font-size="11" fill="#2e2e50" text-anchor="end">5</text>

  <!-- CODE LINES — all red -->
  <text x="236" y="100" font-family="monospace" font-size="13" fill="#f87171">import { Session } from './core';</text>
  <text x="236" y="150" font-family="monospace" font-size="13" fill="#f87171">const room = new Session({</text>
  <!-- active edit row highlight -->
  <rect x="185" y="160" width="1015" height="22" fill="#f87171" opacity="0.07"/>
  <text x="236" y="175" font-family="monospace" font-size="13" fill="#f87171">  sync: socket, cursors: true,<tspan>|</tspan></text>
  <!-- "alex" name tag: right of the pipe, vertically on the same line -->
  <rect x="479" y="163" width="34" height="14" rx="3" fill="#f87171" opacity="0.9"/>
  <text x="496" y="170" font-family="monospace" font-size="9" fill="#0d0d1f" text-anchor="middle" dominant-baseline="central">alex</text>
  <text x="236" y="200" font-family="monospace" font-size="13" fill="#f87171">  onConflict: resolve,</text>

  <!-- BLUE comment box -->
  <rect x="680" y="100" width="230" height="54" rx="8" fill="#080d1c" stroke="#60a5fa" stroke-width="1.5"/>
  <path d="M 703,154 L 695,168 L 722,154" fill="#080d1c" stroke="#60a5fa" stroke-width="1.5" stroke-linejoin="round"/>
  <text x="696" y="122" font-family="monospace" font-size="12" fill="#60a5fa">// refactor this later</text>
  <text x="696" y="142" font-family="monospace" font-size="11" fill="#3b6aaa" opacity="0.9">— bob, 3 min ago</text>

  <!-- BLUE cursor — smaller -->
  <polygon points="695,172 695,192 703,183 707,193 711,191 706,182 714,180" fill="#60a5fa" opacity="0.9"/>
</svg>
